<svg id="Слой_1" data-name="Слой 1" xmlns="http://www.w3.org/2000/svg" viewBox="0 0 546.76 193.09"><defs><style>.cls-1{fill:#d10429;}.cls-2{fill:#2b3b60;stroke:#2b3b60;stroke-miterlimit:10;stroke-width:3px;}</style></defs><path class="cls-1" d="M120.73,107.79c2.56,13.2,5.1,26.3,7.66,39.48l-6.91,1.87c-6.28,1.68-12.56,3.37-18.84,5a3.49,3.49,0,0,1-1.73,0q-27-7.2-54-14.44l-16.4-4.38-.43-.16c.12-.27.22-.51.35-.74q12-21.32,24.08-42.63a1.78,1.78,0,0,1,1.91-1c11.37.53,22.75,1,34.12,1.52,3.19.14,6.37.43,9.56.43,3.81,0,7.63-.19,11.44-.34,5.25-.21,10.5-.47,15.75-.71,6.62-.29,13.24-.57,19.87-.9a1.65,1.65,0,0,1,1.78.94q12.07,21.45,24.23,42.87c.09.16.17.33.32.62L169,136.42c-3.44.93-6.89,1.82-10.32,2.78-.73.2-1,0-1.35-.64q-7.89-16-15.8-31.94a1.52,1.52,0,0,0-1.86-1c-6,.7-11.93,1.32-17.9,2C121.46,107.62,121.16,107.7,120.73,107.79Z" transform="translate(-12.34 -8.38)"/><path class="cls-1" d="M191.19,166.48,174.56,173c-1-1.34-1-1.33-2.5-.76q-17.59,6.49-35.2,13c-.84.3-1,.65-.82,1.49.33,1.33.27,1.34-1,1.84l-32.2,12.67a2.54,2.54,0,0,1-2,0q-43.46-17.11-86.92-34.2c-.49-.19-1-.4-1.53-.63l3.86-6.85c3.63-6.42,7.28-12.84,10.89-19.27a1.13,1.13,0,0,1,1.54-.67q31,8.34,62,16.63c3.35.9,6.69,1.82,10.06,2.67a4.43,4.43,0,0,0,2.08,0c8.59-2.27,17.16-4.58,25.73-6.87l.71-.17.53,2.16,30.82-8.79-.66-1.58,3.25-.9c3.95-1.06,7.91-2.11,11.86-3.19.59-.15.94-.14,1.29.47q7.32,13,14.68,26C191.08,166.17,191.11,166.29,191.19,166.48Zm-18.71,2.62c-.76-1.53-1.48-2.88-2.1-4.28-.32-.72-.65-.86-1.41-.6Q152.15,170,135.33,175.7c-1.67.57-1.32.39-1.05,1.88.3,1.71.67,3.41,1,5.24Zm-39,4.25,35.16-12c-.77-1.54-1.52-2.94-2.15-4.39-.35-.79-.7-1-1.55-.69q-15.28,4.83-30.6,9.59c-2.2.69-2.21.69-1.76,3C132.86,170.32,133.17,171.78,133.48,173.35Zm-1.87-9.57,33.09-10.35c-.8-1.63-1.59-3.06-2.22-4.55-.39-.9-.85-1-1.72-.73-5.85,1.71-11.71,3.37-17.57,5-4,1.15-8.06,2.29-12.08,3.47-.3.09-.76.5-.73.7C130.73,159.45,131.16,161.52,131.61,163.78Z" transform="translate(-12.34 -8.38)"/><path class="cls-1" d="M113,64.94c.42,2.22.69,4.27,1.19,6.26.62,2.44,2.85,3.91,5.76,3.91,6.07,0,12.14,0,18.21-.06a2,2,0,0,1,2.11,1.23c1.6,3,3.3,5.89,5,8.83.17.29.31.59.51,1-1,.07-1.82.15-2.68.19-13.44.59-26.87,1.25-40.31,1.71-4.37.15-8.75-.24-13.13-.42q-12.09-.52-24.18-1.09l-7.62-.36,2.78-4.94C64.63,74,68.71,66.83,72.75,59.64a1.76,1.76,0,0,1,1.52-1l12.12-1.32c4.88-.52,9.76-1.14,14.65-1.51a35.29,35.29,0,0,1,6,.42c6.19.66,12.37,1.35,18.56,2,1.39.16,2.79.3,4.19.49a1.25,1.25,0,0,1,.8.51c1.87,3.25,3.71,6.52,5.55,9.79a2.34,2.34,0,0,1,.09.35c-.26,0-.49,0-.72,0-4-.14-8.07-.25-12.1-.42-2.46-.11-4.53-.92-5.58-3.39a.83.83,0,0,0-.54-.43C115.89,65.08,114.52,65,113,64.94Z" transform="translate(-12.34 -8.38)"/><path class="cls-1" d="M121.79,43.72c-2.34-.24-4.46-.42-6.56-.69a15.71,15.71,0,0,1-2.59-.69,1,1,0,0,1-.57-.46c-.82-1.67-2.39-1-3.94-1.42.44,1.79.72,3.38,1.22,4.9a2.41,2.41,0,0,0,2.22,1.36c1.79.24,3.6.42,5.4.61,2.18.22,4.36.42,6.53.67a1.39,1.39,0,0,1,.93.46c1,1.65,1.93,3.35,3,5.24-1.12-.09-2.06-.15-3-.25-7.24-.79-14.47-1.65-21.72-2.35a25.11,25.11,0,0,0-5,.32c-6.71.71-13.42,1.46-20.13,2.2-.4,0-.8,0-1.37.07.23-.44.38-.77.56-1.09,2.83-5,5.68-10,8.5-15a1.32,1.32,0,0,1,1.14-.78c5-.52,10-1.14,15-1.59a22.44,22.44,0,0,1,4.38.35q5.74.6,11.47,1.27a1.25,1.25,0,0,1,.85.41C119.31,39.31,120.48,41.41,121.79,43.72Z" transform="translate(-12.34 -8.38)"/><path class="cls-1" d="M115.08,31.87c-4.36-.46-8.48-1-12.62-1.31a24.76,24.76,0,0,0-4.37.29c-3.14.32-6.27.67-9.6,1C92.93,24,97.31,16.29,101.78,8.38,106.24,16.26,110.61,24,115.08,31.87Z" transform="translate(-12.34 -8.38)"/><path class="cls-2" d="M243.66,76.45a76.41,76.41,0,0,1,12.77-1c6.57,0,11.39,1.53,14.45,4.28a13.87,13.87,0,0,1,4.51,10.78c0,4.67-1.38,8.34-4,11-3.52,3.75-9.25,5.66-15.75,5.66a22.46,22.46,0,0,1-5.35-.46v20.65h-6.65Zm6.65,24.85a22.43,22.43,0,0,0,5.5.53c8,0,12.93-3.9,12.93-11,0-6.8-4.82-10.09-12.16-10.09a28.35,28.35,0,0,0-6.27.53Z" transform="translate(-12.34 -8.38)"/><path class="cls-2" d="M301.54,111.16l-5.35,16.21H289.3l17.51-51.54h8l17.59,51.54h-7.11l-5.51-16.21Zm16.9-5.2-5.05-14.83c-1.15-3.37-1.91-6.43-2.68-9.41h-.15c-.76,3.06-1.6,6.19-2.6,9.33l-5,14.91Z" transform="translate(-12.34 -8.38)"/><path class="cls-2" d="M392.53,75.83v46.11l4.51.15-.46,17.67h-5.2l-.46-12.39H358.43L358,139.76h-5.2l-.46-17.67,3.9-.15a61,61,0,0,0,5.05-11.32c1.75-6,2.44-12.84,2.44-21.71V75.83ZM369.9,91.05c0,8.26-.77,15.22-2.6,21a50.13,50.13,0,0,1-4.21,9.78h22.79V81.34h-16Z" transform="translate(-12.34 -8.38)"/><path class="cls-2" d="M422.35,75.83l10.24,22c1.3,3.06,2.53,6,3.75,9.1h.15c.92-2.68,1.92-5.66,3.22-9.33l8-21.72h7L444,102.29c-2.83,6.88-6,14.76-9.64,19.57-3.36,4.21-7.11,6.35-11.69,6.35a11.36,11.36,0,0,1-3.75-.46l.69-5.43a9,9,0,0,0,2.44.23c5.36-.07,8.49-5.2,10.1-8.87a3.11,3.11,0,0,0-.23-3.13L414.78,75.83Z" transform="translate(-12.34 -8.38)"/><path class="cls-2" d="M502.94,75.83v5.59H482.22v46h-6.65V75.83Z" transform="translate(-12.34 -8.38)"/><path class="cls-2" d="M526.11,111.16l-5.35,16.21h-6.88l17.51-51.54h8L557,127.37h-7.11l-5.51-16.21ZM543,106l-5-14.83c-1.15-3.37-1.91-6.43-2.68-9.41h-.15c-.76,3.06-1.6,6.19-2.6,9.33l-5,14.91Z" transform="translate(-12.34 -8.38)"/></svg>